<svg id="Layer_1" data-name="Layer 1" xmlns="http://www.w3.org/2000/svg" xmlns:xlink="http://www.w3.org/1999/xlink" viewBox="0 0 1701 1700.56"><defs><style>.cls-1,.cls-6{fill:none;}.cls-2{clip-path:url(#clip-path);}.cls-3{fill:#09adca;}.cls-4{fill:#282c6c;}.cls-5{fill:#c01613;}.cls-6{stroke:#000;stroke-width:0.3px;}</style><clipPath id="clip-path"><rect class="cls-1" width="1700.79" height="1700.56"/></clipPath></defs><title>Artboard 1</title><g class="cls-2"><rect class="cls-3" x="904.81" y="824.41" width="470.41" height="197.1"/><polygon class="cls-4" points="1607.99 237.65 1468.62 98.28 -454.52 2021.41 -315.15 2160.79 1607.99 237.65 1607.99 237.65"/><rect class="cls-4" x="1503.69" y="9.44" width="197.1" height="1690.67"/><rect class="cls-4" width="1700.79" height="197.1"/><polygon class="cls-5" points="811.12 563.7 671.74 424.32 -1251.39 2347.46 -1112.02 2486.83 811.12 563.7 811.12 563.7"/><rect class="cls-5" x="706.82" y="335.49" width="197.1" height="1559.02"/><rect class="cls-5" x="-302.63" y="335.49" width="1206.55" height="197.1"/><polygon class="cls-3" points="1282.41 1052.62 1143.04 913.25 -780.09 2836.39 -640.72 2975.76 1282.41 1052.62 1282.41 1052.62"/><rect class="cls-3" x="1178.12" y="824.41" width="197.1" height="1559.02"/><rect class="cls-3" x="464.06" y="821.2" width="908.08" height="197.1"/></g><rect id="_Фрагмент_" data-name="&lt;Фрагмент&gt;" class="cls-1" width="1701" height="1700.56"/><line class="cls-6" x1="50.78" x2="50.78" y2="33.85"/><line class="cls-6" y1="50.78" x2="33.85" y2="50.78"/><line class="cls-6" y1="1649.79" x2="33.85" y2="1649.79"/><line class="cls-6" x1="50.78" y1="1700.56" x2="50.78" y2="1666.71"/><line class="cls-6" x1="1650.22" x2="1650.22" y2="33.85"/><line class="cls-6" x1="1701" y1="50.78" x2="1667.15" y2="50.78"/><line class="cls-6" x1="1701" y1="1649.79" x2="1667.15" y2="1649.79"/><line class="cls-6" x1="1650.22" y1="1700.56" x2="1650.22" y2="1666.71"/></svg>