<svg xmlns="http://www.w3.org/2000/svg" xmlns:xlink="http://www.w3.org/1999/xlink" viewBox="0 0 744 405"><defs><style>.cls-1{fill:none;}.cls-2{fill:#c21e25;}.cls-3{clip-path:url(#clip-path);}.cls-4{fill:#30307a;}.cls-5{clip-path:url(#clip-path-2);}</style><clipPath id="clip-path"><rect class="cls-1" x="1" y="171.22" width="741.87" height="232.78"/></clipPath><clipPath id="clip-path-2"><rect class="cls-1" x="261" y="0.22" width="482.2" height="141.66"/></clipPath></defs><title>Ресурс 3</title><g id="Слой_2" data-name="Слой 2"><g id="Слой_1-2" data-name="Слой 1"><polygon class="cls-2" points="679.53 171.22 665.61 186.88 716.13 186.88 665.61 237.4 665.61 248.47 676.69 248.47 727.21 197.96 727.21 248.47 742.87 233.14 742.87 171.22 679.53 171.22"/><g class="cls-3"><path class="cls-2" d="M20.33,370.49v12H4.25v-12H1v27.12H4.25v-12H20.33v12h3.26V370.49Zm36.25,27.12V370.49h-3L37.25,392.14V370.49H34v27.12h3l16.31-21.7v21.7Zm10.83,0,7.71-12.28H80v12.28h3.26V385.33h4.84l7.71,12.28h3.72l-8.8-13.91,8-13.21H95l-6.86,11.74H83.27V370.49H80v11.74H75.09l-6.86-11.74H64.51l8,13.21L63.7,397.61Zm39.23-27.12v27.12h18.52v-3.1H109.91v-9h13.87v-3.1H109.91v-8.8h15v-3.1Zm30.48,27.12v-24H151.7v-3.1H133.88v27.12ZM155.87,384c0,7,4.69,14,14.18,14s14.18-7,14.18-14-4.69-14-14.18-14-14.18,7-14.18,14m25.07,0c0,5.58-3.53,10.93-10.89,10.93s-10.89-5.35-10.89-10.93,3.53-10.93,10.89-10.93,10.89,5.35,10.89,10.93m11.88-13.56v27.12h3.25V388h6c6.28,0,11.51-2,11.51-8.76s-5.23-8.76-11.51-8.76Zm17.47,8.76c0,4.57-3.64,5.66-8.06,5.66h-6.16V373.59h6.16c4.46,0,8.06,1,8.06,5.66m9.6,4.8c0,7,4.69,14,14.18,14s14.18-7,14.18-14-4.69-14-14.18-14-14.18,7-14.18,14M245,384c0,5.58-3.53,10.93-10.89,10.93s-10.89-5.35-10.89-10.93,3.53-10.93,10.89-10.93S245,378.47,245,384m11.26,20v-6.39H277.8V404h3.1v-9.49h-3.41v-24H260.83c0,8.33-.93,17.71-4.42,24h-3.29V404Zm7.94-30.41h10.07v20.92H260.05c2.71-5.35,3.68-13.6,4.11-20.92m22.54,10.66c0,9,7.4,13.83,14.22,13.83a17.16,17.16,0,0,0,7.86-1.82V393a12.39,12.39,0,0,1-7.17,2c-5.62,0-11.66-3.49-11.62-10.73,0-7.75,5.89-11.12,11.51-11.12a12.94,12.94,0,0,1,7.09,2v-3.25A16.43,16.43,0,0,0,301,370c-7.05,0-14.22,4.8-14.26,14.22m33.85,13.37V385.33h6.28l8.87,12.28h3.72l-10-13.91,9.22-13.21h-3.72l-8.17,11.74h-6.16V370.49h-3.26v27.12ZM343.31,384c0,7,4.69,14,14.18,14s14.18-7,14.18-14-4.69-14-14.18-14-14.18,7-14.18,14m25.07,0c0,5.58-3.52,10.93-10.89,10.93s-10.89-5.35-10.89-10.93,3.52-10.93,10.89-10.93,10.89,5.35,10.89,10.93m31.21,13.56v-21.7l-16.31,21.7h-3V370.49h3.25v21.66l16.31-21.66h3v27.12ZM397,366.23v-3a9.48,9.48,0,0,1-10.85,0v3a9.85,9.85,0,0,0,10.85,0M419.73,384c0,7,4.69,14,14.18,14s14.18-7,14.18-14-4.69-14-14.18-14-14.18,7-14.18,14m25.07,0c0,5.58-3.52,10.93-10.89,10.93S423,389.63,423,384s3.53-10.93,10.89-10.93S444.8,378.47,444.8,384m15.14-2.6v-7.86h15.54v-3.1H456.68v27.12h10.46c5,0,10.42-1.43,10.42-8.06s-5.42-8.1-10.42-8.1Zm0,13.06v-10h7.36c3.41,0,7,.54,7,5s-3.52,5-7,5Zm30.9-24c-.93,12-1.7,24.25-6.62,24.25a5,5,0,0,1-1.86-.27v3.1a7,7,0,0,0,2.4.43c7.09,0,8.1-12,9.18-24.41h10.34v24h3.26V370.49Zm27.34,27.12,2.79-6.55h14.61l2.79,6.55h3.49l-11.78-27.12h-3.6l-11.82,27.12Zm9.65-22.74c.15-.35.27-.66.43-1,.15.39.27.7.43,1L534.3,388h-12Zm18.31,9.38c0,9,7.4,13.83,14.22,13.83a17.17,17.17,0,0,0,7.87-1.82V393a12.39,12.39,0,0,1-7.17,2c-5.62,0-11.66-3.49-11.62-10.73,0-7.75,5.89-11.12,11.51-11.12a12.94,12.94,0,0,1,7.09,2v-3.25A16.43,16.43,0,0,0,560.4,370c-7.05,0-14.22,4.8-14.26,14.22m27.57-13.75v3.1h9.53v24h3.26v-24H596v-3.1ZM626,397.61V370.49h-3l-16.31,21.66V370.49h-3.26v27.12h3l16.31-21.7v21.7Z"/><path class="cls-4" d="M3.07,212.15c0,26.85,21,39.17,41.59,39.17a51.21,51.21,0,0,0,22.33-5V230.19c-4.62,4.18-11.88,6.38-19.8,6.38-13.42,0-27.28-7.48-27.18-24.42,0-18.59,13.64-26.3,27.18-26.3,7.15,0,14.3,2.2,19.25,6.05V176.17a49.61,49.61,0,0,0-22-5c-20.57,0-41.26,12.76-41.37,40.93m69.42-39.39v14.85H96.14v62.16h16.39V187.61h23.65V172.76Zm73.38,0v77h16.5v-25.3h12.54c18.59,0,33.23-5.94,33.23-25.86s-14.63-25.86-33.23-25.86Zm45.44,25.86c0,9-7.15,11.33-15.62,11.33H162.38V187.28h13.31c8.47,0,15.62,2.2,15.62,11.33m29.93,51.16L227,235.36h35.21l5.61,14.41h17.05l-31.36-77H235.65l-31.46,77ZM242.8,194.1a25.64,25.64,0,0,0,1.76-6.05,34,34,0,0,0,1.65,6.05L257,221.72H232.13Zm35.1-21.35v14.85h23.65v62.16h16.39V187.61H341.6V172.76Zm73.38,0v77h54.9V235.25h-38.4V218.09h34.44V203.67H367.79V187.28h37.74V172.76Zm84.39,77V187.61H473V172.76h-53.8v77Zm114.42,0v-77H534.58L498.71,223c.22-3.19.33-7,.33-10.56V172.76h-16.5v77h15.51l35.87-50.28c-.22,3.19-.33,7-.33,10.56v39.72Zm28.94,0,19.47-26.19h11.55v26.19h16.5v-77H595.2c-16.28,0-30.92,7.26-30.92,25.75,0,12.54,7.26,19.69,17.16,23L560,249.77Zm2.2-51.27c0-7.7,5.72-11.22,14.08-11.22h14.74v22.55H595.31c-8.36,0-14.08-3.63-14.08-11.33"/><path class="cls-4" d="M2.36,270.94v81.9H19.92V325.93H33.25c19.77,0,35.34-6.32,35.34-27.5S53,270.94,33.25,270.94Zm48.32,27.5c0,9.59-7.61,12.05-16.61,12.05H19.92v-24.1H34.07c9,0,16.61,2.34,16.61,12.05m31.82,54.41,6.08-15.33H126l6,15.33h18.13l-33.35-81.9h-19l-33.46,81.9Zm22.93-59.2a27.2,27.2,0,0,0,1.87-6.44,36.22,36.22,0,0,0,1.75,6.44L120.54,323H94.1Zm113.73,37c0-12.29-7.84-18.72-16.38-21.06,8-2.69,13.1-8.89,13.1-17.9,0-15.09-13.1-22.35-32.29-22.35a69.18,69.18,0,0,0-27.15,5.38v16.73c9.95-4.8,18.25-6.43,25.63-6.32,10.41,0,16.26,2.81,16.26,9.36,0,5.73-5,8.54-12.75,8.54H168.4l-.12,15.44h18.49c8,0,14.74,2,14.74,9.59,0,8.43-8.54,10.65-17.43,10.65a61.61,61.61,0,0,1-29-6.32v16.85a88,88,0,0,0,30.3,5.27c16.26,0,33.82-5.62,33.82-23.87m13.1-59.67v81.9H267.5c14.27,0,32.18-4.33,32.18-22.93,0-12.05-7.61-18-15.68-20.36,7.26-2.46,12.4-8.31,12.4-17.9,0-14-10.88-20.71-28.32-20.71ZM282.13,328c0,8.89-7,10.53-14.86,10.53H249.71V317.51H268.2c7,0,13.92,1.87,13.92,10.53M279,294.69c0,6.32-4.8,9.36-11.47,9.36H249.83V285.33h16.73c7.72,0,12.4,2.93,12.4,9.36m105.54,58.15v-81.9H368l-38.14,53.47c.23-3.39.35-7.49.35-11.23V270.94H312.66v81.9h16.5l38.14-53.47c-.23,3.39-.35,7.49-.35,11.23v42.24Zm10.3-81.9v15.8H420v66.11h17.43V286.74h25.16v-15.8Zm149.89,81.9v-81.9h-16.5L490,324.41c.23-3.39.35-7.49.35-11.23V270.94H472.84v81.9h16.5l38.14-53.47c-.23,3.39-.35,7.49-.35,11.23v42.24Zm30.77,0L596.17,325h12.29v27.85H626v-81.9H592.66c-17.32,0-32.88,7.72-32.88,27.38,0,13.34,7.72,20.94,18.25,24.46l-22.82,30.07Zm2.34-54.53c0-8.19,6.08-11.93,15-11.93h15.68v24H592.78c-8.89,0-15-3.86-15-12.05"/></g><g class="cls-5"><path class="cls-4" d="M265.6,14.62v28c14.41-11,30.41-16.21,44-16.21,13.81,0,22.61,5.2,22.61,15.21,0,13-12.2,18.41-26.41,26.61C285.81,80,261,92.86,261,125.67v13.41H363V113.26l-68,.2c.2-8.8,14-16.21,30.21-25.81C343,77,362,63.44,362,40.43,362,12.62,339.83.22,312.42.22c-16.61,0-32.81,4.4-46.82,14.41"/><path class="cls-4" d="M380.85,71c0,39.22,18.61,70.83,62,70.83s62-31.61,62-70.83S486.29.22,442.88.22s-62,31.61-62,70.83m94,0c0,29-10,44.42-32,44.42s-32-15.41-32-44.42,10-44.42,32-44.42,32,15.41,32,44.42"/><path class="cls-2" d="M619,37.83C619,13,597.94.22,569.73.22c-16.81,0-32.21,4-44.42,10.6V38.63c13.41-8.2,28-12.21,40.22-12.21,16.41,0,25,5.8,25,15.61,0,9.4-8.2,14.41-21.61,14.41l-18.81-.2-.2,25.61h22.41c13.61,0,23.61,4.2,23.61,15.81,0,12.81-12.8,17.81-28.21,17.81-15.61.2-29.41-2-44.82-10.61v27.81c15.41,6.4,29.61,9.2,47.22,9.2,28,0,54.42-11.4,54.42-40,0-20-12.4-30.61-26.21-34.81C611.15,62.64,619,51.84,619,37.83"/><path class="cls-2" d="M650.56,2.82l-4.8,79A105.78,105.78,0,0,1,680,76c21.81,0,33.21,6.6,33.21,20,0,13.21-13.21,19.61-31,19.61-13.61,0-29.41-3.8-40.42-10.81v27.81c12,5.8,28,9.21,43.82,9.21,30,0,57.62-13.81,57.62-45.42C743.2,65.24,720.59,53,693.38,53a89.62,89.62,0,0,0-17.61,2l1.8-26.61,59.42.2V2.82Z"/></g><rect id="_Фрагмент_" data-name="&lt;Фрагмент&gt;" class="cls-1" width="744" height="405"/></g></g></svg>