<svg xmlns="http://www.w3.org/2000/svg" xmlns:xlink="http://www.w3.org/1999/xlink" viewBox="0 0 40 28.4"><defs><style>.cls-1{fill:none;}.cls-2{fill:#fff;}.cls-3{clip-path:url(#clip-path);}</style><clipPath id="clip-path" transform="translate(0 0)"><rect class="cls-1" width="40" height="28.4"/></clipPath></defs><title>Ресурс 1</title><g id="Слой_2" data-name="Слой 2"><g id="Слой_1-2" data-name="Слой 1"><path class="cls-2" d="M8.86,24h5l1.65,2.43H8.86ZM5.43,19.53h5.38L12.46,22h-7ZM26.68,24h9.88V10.86H38V26.4H28.33Zm-3-4.43h9.46V6.43h1.43V22H25.33ZM2,2h8.35V17.53H2ZM12.35,18.23V2h8.45V18.84l5.12,7.56h-8ZM22.8,2h8.34V17.53H22.8V14.66h5.55v-2H22.8V6.87h5.55v-2H22.8ZM0,0V19.53H3.43V24H6.86V28.4H40V8.86H36.57V4.43H33.14V0Z" transform="translate(0 0)"/><g class="cls-3"><path class="cls-2" d="M6.93,3.42a3,3,0,1,0,3,3,3,3,0,0,0-3-3m0,3.92a1,1,0,1,1,1-1,1,1,0,0,1-1,1" transform="translate(0 0)"/></g></g></g></svg>