<svg xmlns="http://www.w3.org/2000/svg" xmlns:xlink="http://www.w3.org/1999/xlink" viewBox="0 0 42.66 37.55"><defs><style>.cls-1,.cls-3{fill:none;}.cls-2{clip-path:url(#clip-path);}.cls-3{stroke:#fff;stroke-miterlimit:10;stroke-width:2px;}</style><clipPath id="clip-path" transform="translate(0 0)"><rect class="cls-1" width="42.66" height="37.55"/></clipPath></defs><title>Ресурс 1</title><g id="Слой_2" data-name="Слой 2"><g id="Слой_1-2" data-name="Слой 1"><g class="cls-2"><path class="cls-3" d="M26.52,26.78v-6H23.2a9.7,9.7,0,0,0-.65-1.57l2.35-2.35-4.23-4.23L18.32,15a9.68,9.68,0,0,0-1.57-.65V11h-6v3.32A9.7,9.7,0,0,0,9.2,15L6.85,12.65,2.62,16.88,5,19.23a9.88,9.88,0,0,0-.65,1.57H1v6H4.32A9.88,9.88,0,0,0,5,28.35L2.62,30.7l4.23,4.23L9.2,32.57a9.88,9.88,0,0,0,1.57.65v3.32h6V33.23a9.86,9.86,0,0,0,1.57-.65l2.35,2.35,4.23-4.23-2.35-2.35a9.71,9.71,0,0,0,.65-1.57Z" transform="translate(0 0)"/><circle class="cls-3" cx="13.76" cy="23.79" r="3.1"/><path class="cls-3" d="M41.66,10.84V7.11H39.59a6.11,6.11,0,0,0-.41-1l1.47-1.47L38,2,36.54,3.48a6.22,6.22,0,0,0-1-.41V1H31.82V3.08a6.15,6.15,0,0,0-1,.41L29.37,2,26.73,4.66,28.2,6.12a6.1,6.1,0,0,0-.41,1H25.72v3.73h2.08a6.08,6.08,0,0,0,.41,1l-1.47,1.47,2.64,2.64,1.47-1.47a6,6,0,0,0,1,.41v2.08h3.74V14.87a6,6,0,0,0,1-.41L38,15.93l2.64-2.64-1.47-1.47a6.08,6.08,0,0,0,.41-1Z" transform="translate(0 0)"/><circle class="cls-3" cx="33.69" cy="8.97" r="2.44"/></g></g></g></svg>