<svg xmlns="http://www.w3.org/2000/svg" xmlns:xlink="http://www.w3.org/1999/xlink" viewBox="0 0 43.32 35.56"><defs><style>.cls-1{fill:none;}.cls-2{clip-path:url(#clip-path);}.cls-3{fill:#fff;}</style><clipPath id="clip-path" transform="translate(0)"><rect class="cls-1" width="43.31" height="35.56"/></clipPath></defs><title>Ресурс 1</title><g id="Слой_2" data-name="Слой 2"><g id="Слой_1-2" data-name="Слой 1"><g class="cls-2"><path class="cls-3" d="M43.32,16.69,42,15.18l-2.58,2.25A17.76,17.76,0,0,0,3.9,17.3L0,20.71l1.32,1.51L4,19.86a17.76,17.76,0,0,0,35.23.38ZM21.66,33.56A15.79,15.79,0,0,1,6.08,20.15l2.36,2.06,1.32-1.51L5.9,17.34a15.76,15.76,0,0,1,31.52.06l-2.54-2.22-1.32,1.51,3.71,3.24A15.79,15.79,0,0,1,21.66,33.56" transform="translate(0)"/><path class="cls-3" d="M22,6.34l-.78,1.1c-.24.34-5.89,8.43-5.89,12.8A7,7,0,0,0,22,26.92a7,7,0,0,0,6.71-6.67c0-5.16-5.68-12.53-5.92-12.84Zm0,18.58a5,5,0,0,1-4.71-4.67c0-2.66,2.94-7.72,4.74-10.48,1.53,2.18,4.68,7.08,4.68,10.48A5,5,0,0,1,22,24.92" transform="translate(0)"/><path class="cls-3" d="M20.72,20.18h-2A3.41,3.41,0,0,0,22,23.46v-2a1.41,1.41,0,0,1-1.29-1.27" transform="translate(0)"/></g></g></g></svg>