<svg xmlns="http://www.w3.org/2000/svg" xmlns:xlink="http://www.w3.org/1999/xlink" viewBox="0 0 38 38"><defs><style>.cls-1{fill:none;}.cls-2{clip-path:url(#clip-path);}.cls-3{fill:#fff;}</style><clipPath id="clip-path" transform="translate(0 0)"><rect class="cls-1" width="38" height="38"/></clipPath></defs><title>Ресурс 1</title><g id="Слой_2" data-name="Слой 2"><g id="Слой_1-2" data-name="Слой 1"><g class="cls-2"><path class="cls-3" d="M19,0h0a19,19,0,0,0,0,38h0A19,19,0,0,0,19,0M36,19a17.21,17.21,0,0,1-.28,3l-3,1.76-.61-1.26a1.89,1.89,0,0,0-1.6-1l-5.1-.3-1.9-3.23A1.9,1.9,0,0,0,22,17L20.81,17l.34-1.21,3.24-2.58a1.76,1.76,0,0,0,.67-1.27l.08-1.43L28,8.8a1.77,1.77,0,0,0,.88-1.42l.1-2.14A17.29,17.29,0,0,1,31,7a16.89,16.89,0,0,1,5,12M11.31,3.86v.05L10.23,5.65A1.72,1.72,0,0,0,10,6.4l-.55,5.77-1.26,2a1.69,1.69,0,0,0-.1,1.59l1,2.27a1.69,1.69,0,0,0,1,.92l2.17.7,2.14,3.08-1.26,2.83-1.35.31L9.65,24.53l0-1.59A1.69,1.69,0,0,0,9,21.73L5.88,18.94a1.68,1.68,0,0,0-.73-.38l-3.09-.75a17,17,0,0,1,9.25-14M19,36a17,17,0,0,1-5.05-.78l2.49-1.49,2.52.38,1.92.48a1.85,1.85,0,0,0,.8,0l2.17-.4,1.58.54A17,17,0,0,1,19,36Zm12-5a17.08,17.08,0,0,1-3.14,2.45L24,32.15l-2.63.5-2-.5L16,31.65l-4.4,2.63A17,17,0,0,1,2,19.87l2.57.62,3,2.65.07,2.52L11.45,28l3.14-.72,2.11-4.77L13.54,18l-2.69-.87-.9-2,1.42-2.27L12,6.67l1.5-2.4-.28-1.22A16.87,16.87,0,0,1,19,2h0a16.92,16.92,0,0,1,8,2l-.15,3.14L23.21,9.28l-.14,2.38-3.67,2.92-1.2,4.23,3.64.21,2.4,4.09,6.13.36,1.52,3.14L35,24.79A16.91,16.91,0,0,1,31,31" transform="translate(0 0)"/></g></g></g></svg>