<svg xmlns="http://www.w3.org/2000/svg" xmlns:xlink="http://www.w3.org/1999/xlink" viewBox="0 0 40 39"><defs><style>.cls-1{fill:none;}.cls-2{fill:#fff;}.cls-3{clip-path:url(#clip-path);}</style><clipPath id="clip-path"><rect class="cls-1" width="40" height="39"/></clipPath></defs><title>Ресурс 1</title><g id="Слой_2" data-name="Слой 2"><g id="Слой_1-2" data-name="Слой 1"><path class="cls-2" d="M23.17,21.18H38V37H23.17Zm3.73-3.52h7.38v1.52H26.9ZM23.77,0,5.72,4.55,5.7,12h2l0-5.89L21.77,2.57v8.17l4,3.26v1.65h-.9v3.52H21.17V37H10.9v2H40V19.18H36.27V15.66H27.79v-2.6l-4-3.26Z"/><g class="cls-3"><path class="cls-2" d="M12.72,26.44c0-4.86-5.34-11.79-5.57-12.08l-.83-1.07L5.54,14.4C5,15.2,0,22.39,0,26.44a6.65,6.65,0,0,0,5.36,6.23V38h2V32.66a6.65,6.65,0,0,0,5.36-6.23M2,26.44C2,24,4.7,19.31,6.39,16.71c1.69,2.41,4.32,6.8,4.32,9.73a4.64,4.64,0,0,1-4.36,4.32A4.64,4.64,0,0,1,2,26.44"/><rect class="cls-2" x="26.5" y="25.41" width="8.18" height="2"/><rect class="cls-2" x="26.5" y="30.76" width="8.18" height="2"/></g></g></g></svg>